HIERARCHY
ROOT Hips
{
	OFFSET -0.001795 -0.223333 0.028219
	CHANNELS 6 Xposition Yposition Zposition Zrotation Yrotation Xrotation 
	JOINT LeftUpLeg
	{
		OFFSET 0.069520 -0.091406 -0.006815
		CHANNELS 3 Zrotation Yrotation Xrotation
		JOINT LeftLeg
		{
			OFFSET 0.034277 -0.375199 -0.004496
			CHANNELS 3 Zrotation Yrotation Xrotation
			JOINT LeftFoot
			{
				OFFSET -0.013596 -0.397961 -0.043693
				CHANNELS 3 Zrotation Yrotation Xrotation
				JOINT LeftToe
				{
					OFFSET 0.026358 -0.055791 0.119288
					CHANNELS 3 Zrotation Yrotation Xrotation
					End Site
					{
						OFFSET 0.000000 0.000000 0.000000
					}
				}
			}
		}
	}
	JOINT RightUpLeg
	{
		OFFSET -0.067670 -0.090522 -0.004320
		CHANNELS 3 Zrotation Yrotation Xrotation
		JOINT RightLeg
		{
			OFFSET -0.038290 -0.382569 -0.008850
			CHANNELS 3 Zrotation Yrotation Xrotation
			JOINT RightFoot
			{
				OFFSET 0.015774 -0.398415 -0.042312
				CHANNELS 3 Zrotation Yrotation Xrotation
				JOINT RightToe
				{
					OFFSET -0.025372 -0.048144 0.123348
					CHANNELS 3 Zrotation Yrotation Xrotation
					End Site
					{
						OFFSET 0.000000 0.000000 0.000000
					}
				}
			}
		}
	}
	JOINT Spine
	{
		OFFSET -0.002533 0.108963 -0.026696
		CHANNELS 3 Zrotation Yrotation Xrotation
		JOINT Spine1
		{
			OFFSET 0.005487 0.135180 0.001092
			CHANNELS 3 Zrotation Yrotation Xrotation
			JOINT Spine2
			{
				OFFSET 0.001457 0.052922 0.025425
				CHANNELS 3 Zrotation Yrotation Xrotation
				JOINT Neck
				{
					OFFSET -0.002778 0.213870 -0.042857
					CHANNELS 3 Zrotation Yrotation Xrotation
					JOINT Head
					{
						OFFSET 0.005152 0.064970 0.051349
						CHANNELS 3 Zrotation Yrotation Xrotation
						End Site
						{
							OFFSET 0.000000 0.000000 0.000000
						}
					}
				}
				JOINT LeftShoulder
				{
					OFFSET 0.078845 0.121749 -0.034090
					CHANNELS 3 Zrotation Yrotation Xrotation
					JOINT LeftArm
					{
						OFFSET 0.090977 0.030469 -0.008868
						CHANNELS 3 Zrotation Yrotation Xrotation
						JOINT LeftForeArm
						{
							OFFSET 0.259612 -0.012772 -0.027456
							CHANNELS 3 Zrotation Yrotation Xrotation
							JOINT LeftHand
							{
								OFFSET 0.249234 0.008986 -0.001171
								CHANNELS 3 Zrotation Yrotation Xrotation
								End Site
								{
									OFFSET 0.000000 0.000000 0.000000
								}
							}
						}
					}
				}
				JOINT RightShoulder
				{
					OFFSET -0.081759 0.118833 -0.038615
					CHANNELS 3 Zrotation Yrotation Xrotation
					JOINT RightArm
					{
						OFFSET -0.096012 0.032551 -0.009143
						CHANNELS 3 Zrotation Yrotation Xrotation
						JOINT RightForeArm
						{
							OFFSET -0.253742 -0.013329 -0.021401
							CHANNELS 3 Zrotation Yrotation Xrotation
							JOINT RightHand
							{
								OFFSET -0.255298 0.007772 -0.005559
								CHANNELS 3 Zrotation Yrotation Xrotation
								End Site
								{
									OFFSET 0.000000 0.000000 0.000000
								}
							}
						}
					}
				}
			}
		}
	}
}
MOTION
Frames: 12
Frame Time: 0.050000
0.000000 0.951033 0.000000 -0.409171 -4.381001 1.097895 3.228562 -0.170300 -2.346969 -3.758575 0.449015 -0.264674 5.349994 13.043569 13.862952 0.000000 0.000000 0.000000 -7.692562 0.672317 -11.128365 3.517417 -0.074592 15.310626 0.548064 -0.792665 3.783292 0.000000 0.000000 0.000000 4.499803 -1.427463 18.744494 -4.441808 1.583306 -25.217639 -2.008430 3.869709 25.390191 11.698121 -5.936207 -21.642941 0.000000 0.000000 0.000000 -21.175843 -7.587043 2.744024 -40.816386 -7.696118 -4.207623 -8.525169 -26.021665 3.039403 0.000000 0.000000 0.000000 32.404539 -1.218965 -2.666936 45.438476 9.649218 -3.179030 2.577594 22.436196 1.454655 0.000000 0.000000 0.000000 
-0.006414 0.950184 0.000371 -0.173913 -4.589317 1.269651 3.561550 -0.174609 -2.498317 -4.071961 0.487886 -0.220375 5.446626 13.176986 13.942903 0.000000 0.000000 0.000000 -7.903753 0.699321 -11.928212 3.221764 0.023491 16.111737 1.433503 1.241633 3.831845 0.000000 0.000000 0.000000 4.264181 -1.446241 19.805806 -4.023287 1.477808 -26.461695 -2.300784 3.545769 24.579391 11.536674 -5.917298 -21.227001 0.000000 0.000000 0.000000 -21.481775 -6.089074 1.970675 -41.449531 -5.893079 -4.773988 -7.718510 -25.515878 2.820599 0.000000 0.000000 0.000000 31.956458 -2.042801 -3.446152 47.215303 7.489247 -3.871107 2.278773 23.447662 1.474098 0.000000 0.000000 0.000000 
-0.015383 0.949332 0.000908 0.168092 -3.630528 1.184314 4.264790 -0.188852 -2.871151 -4.826751 0.575450 0.472071 4.931058 12.469467 13.830053 0.000000 0.000000 0.000000 -7.947186 0.641948 -11.202829 2.261002 0.162951 14.440866 2.665921 3.464720 4.994724 0.000000 0.000000 0.000000 4.969126 -1.572261 19.321594 -4.358735 1.572951 -26.023575 -2.724922 2.628134 24.490256 10.474293 -5.196259 -21.697111 0.000000 0.000000 0.000000 -21.538176 -6.111929 2.075203 -41.513253 -4.847448 -5.127546 -7.503449 -23.733302 2.566135 0.000000 0.000000 0.000000 32.079906 -2.605008 -3.991598 46.866143 6.220566 -4.279794 2.298659 23.659691 1.486859 0.000000 0.000000 0.000000 
-0.027018 0.947946 0.001382 0.471158 -3.572837 1.350539 4.636799 -0.203343 -3.246901 -4.704043 0.563509 0.905342 4.922307 12.464049 13.875692 0.000000 0.000000 0.000000 -8.217390 0.618964 -10.964289 2.203692 0.124002 12.886394 4.116157 6.142208 6.007572 0.000000 0.000000 0.000000 5.030718 -1.662975 20.385395 -4.537586 1.599635 -27.489353 -2.979105 2.623338 24.850808 10.305988 -5.069661 -21.851388 0.000000 0.000000 0.000000 -21.513805 -5.354929 1.644718 -41.516086 -3.336942 -5.625042 -7.944270 -22.782797 2.542609 0.000000 0.000000 0.000000 33.189749 -3.465125 -4.738127 46.020635 5.530774 -4.503995 2.826519 24.137048 1.632777 0.000000 0.000000 0.000000 
-0.041239 0.946249 0.001253 0.606479 -3.270973 1.159981 5.664633 -0.191024 -3.508450 -5.067374 0.617484 1.731253 4.751541 12.229794 13.854683 0.000000 0.000000 0.000000 -7.841171 0.588231 -9.829079 2.314988 0.042159 11.136027 4.589003 7.478270 5.668569 0.000000 0.000000 0.000000 5.320430 -1.719327 20.299875 -4.226907 1.542381 -26.678612 -3.267636 2.781957 24.466379 10.264186 -5.030526 -21.467971 0.000000 0.000000 0.000000 -21.462687 -5.178209 1.420195 -41.570653 -2.522607 -5.820431 -8.264711 -22.051662 2.502594 0.000000 0.000000 0.000000 32.740657 -3.735644 -4.705603 46.330418 5.538561 -4.546904 2.885474 23.728491 1.627857 0.000000 0.000000 0.000000 
-0.057276 0.944328 0.000159 0.656390 -2.987148 1.297554 6.630782 -0.186294 -3.930086 -4.943105 0.601324 2.104952 4.592876 12.031243 13.989686 0.000000 0.000000 0.000000 -7.136119 0.611388 -9.648870 2.750392 -0.061021 10.650485 4.313856 7.610204 4.610109 0.000000 0.000000 0.000000 5.682401 -1.854617 20.957530 -4.212523 1.538862 -27.097124 -3.107280 3.098911 24.756969 10.137866 -4.877317 -21.531040 0.000000 0.000000 0.000000 -22.101120 -4.970591 1.140938 -41.740237 -1.865404 -6.031041 -8.377696 -21.781655 2.482001 0.000000 0.000000 0.000000 33.008816 -3.757728 -4.539298 45.715103 6.113188 -4.384949 3.032547 23.550969 1.654946 0.000000 0.000000 0.000000 
-0.073488 0.942635 -0.002297 0.778198 -2.580705 1.392890 7.672438 -0.192819 -5.111274 -5.038822 0.629312 3.659928 4.362061 11.756180 14.263015 0.000000 0.000000 0.000000 -6.542468 0.645710 -9.915649 3.406591 -0.192430 10.901100 3.892513 7.324874 3.641448 0.000000 0.000000 0.000000 6.203185 -2.030371 21.594105 -4.189253 1.541122 -26.794530 -3.341162 3.435801 24.626369 10.343837 -4.857372 -21.832422 0.000000 0.000000 0.000000 -22.356173 -4.716646 0.793499 -42.195461 -1.300813 -6.215333 -8.088122 -22.136525 2.459634 0.000000 0.000000 0.000000 32.954714 -3.570230 -4.131367 45.718959 6.760860 -4.225892 2.980918 24.080535 1.711811 0.000000 0.000000 0.000000 
-0.088857 0.941043 -0.005419 1.091147 -1.790395 1.471544 8.355979 -0.205237 -6.293018 -4.951522 0.620827 4.986802 3.902180 11.204234 14.655487 0.000000 0.000000 0.000000 -6.176617 0.680073 -10.528225 4.028648 -0.326300 11.783798 3.335277 6.669261 2.704368 0.000000 0.000000 0.000000 6.838599 -2.306943 22.770129 -4.485014 1.619496 -26.677227 -3.158504 3.441745 24.725227 10.256789 -4.682045 -22.154199 0.000000 0.000000 0.000000 -23.198253 -5.520613 1.074364 -42.819032 -1.211255 -6.300253 -7.958296 -23.310666 2.567606 0.000000 0.000000 0.000000 32.831107 -3.431262 -3.809591 45.115325 8.231483 -3.740437 2.513653 24.644215 1.679571 0.000000 0.000000 0.000000 
-0.102964 0.939613 -0.008953 1.657934 -0.799064 1.854398 8.557756 -0.255506 -8.145972 -4.702868 0.583417 6.974417 3.338186 10.451046 14.608321 0.000000 0.000000 0.000000 -6.116622 0.716863 -11.554014 4.548825 -0.460746 12.766230 2.727565 5.767409 1.874387 0.000000 0.000000 0.000000 7.362861 -2.567734 23.650628 -4.342515 1.607423 -26.134163 -3.580023 3.588885 24.528857 10.036703 -4.448853 -21.988087 0.000000 0.000000 0.000000 -23.872129 -5.788436 0.941810 -43.591401 -2.245698 -5.978861 -7.667392 -23.713624 2.541820 0.000000 0.000000 0.000000 32.506599 -2.975500 -3.123671 44.870761 9.655218 -3.310265 2.119396 25.168540 1.667255 0.000000 0.000000 0.000000 
-0.116005 0.938723 -0.012799 2.255515 0.588893 1.962142 9.241585 -0.275341 -9.973683 -5.369628 0.696849 9.067131 2.376184 9.270007 15.142866 0.000000 0.000000 0.000000 -6.067432 0.735857 -12.565355 4.917417 -0.597122 14.299918 2.057822 4.521133 1.249717 0.000000 0.000000 0.000000 8.109714 -2.976039 25.026522 -4.875473 1.745080 -26.108369 -3.425854 3.741909 24.713811 9.957203 -4.250284 -22.065716 0.000000 0.000000 0.000000 -24.731730 -6.518733 1.007671 -44.427106 -2.953032 -5.762490 -7.604806 -25.029473 2.658429 0.000000 0.000000 0.000000 32.110170 -3.144422 -2.792359 44.371372 11.392476 -2.825727 2.264131 25.677492 1.776349 0.000000 0.000000 0.000000 
-0.128321 0.938495 -0.017174 2.998354 2.015204 2.428604 9.560759 -0.333182 -12.367474 -6.186559 0.846312 11.192331 2.078904 9.265665 16.297956 0.000000 0.000000 0.000000 -6.090380 0.736474 -13.369365 5.017266 -0.682700 14.714092 1.454071 3.222847 0.906657 0.000000 0.000000 0.000000 8.486570 -3.278084 25.889195 -4.744563 1.742387 -25.598252 -3.648900 3.852259 24.350233 9.821817 -3.879272 -22.716165 0.000000 0.000000 0.000000 -25.517583 -6.555677 0.610830 -44.692712 -3.991334 -5.278078 -7.686569 -25.488980 2.693631 0.000000 0.000000 0.000000 31.026005 -2.734039 -2.035472 44.351714 12.967650 -2.336240 1.789573 25.944335 1.731713 0.000000 0.000000 0.000000 
-0.139429 0.938087 -0.021751 3.600868 3.171677 2.123263 10.130601 -0.341047 -14.533877 -7.877450 1.231991 14.231525 2.836509 10.825965 17.766542 0.000000 0.000000 0.000000 -6.218032 0.715827 -14.151702 5.406901 -0.861664 16.451475 1.014767 2.221395 0.722628 0.000000 0.000000 0.000000 8.933933 -3.721822 27.780190 -5.038038 1.820139 -25.925673 -3.610156 4.323788 24.394719 10.418355 -4.090380 -22.760245 0.000000 0.000000 0.000000 -26.159164 -7.130831 0.503995 -44.556835 -4.698114 -4.891571 -7.744522 -26.656935 2.790504 0.000000 0.000000 0.000000 30.111016 -3.143336 -1.828047 43.573861 14.704724 -1.854388 2.268381 26.411282 1.909880 0.000000 0.000000 0.000000 
